<svg xmlns="http://www.w3.org/2000/svg" xmlns:xlink="http://www.w3.org/1999/xlink" width="500" zoomAndPan="magnify" viewBox="0 0 375 374.999991" height="500" preserveAspectRatio="xMidYMid meet" version="1.2"><defs/><g id="bd718fcfdd"><g style="fill:#393939;fill-opacity:1;"><g transform="translate(23.791464, 282.417183)"><path style="stroke:none" d="M 157.5625 -81.671875 C 158.988281 -67.648438 157.566406 -54.546875 153.296875 -42.359375 C 149.023438 -30.171875 142.671875 -20.164062 134.234375 -12.34375 C 125.804688 -4.519531 116.007812 0 104.84375 1.21875 C 97.9375 2.03125 91.179688 1.269531 84.578125 -1.0625 C 77.972656 -3.40625 71.722656 -6.8125 65.828125 -11.28125 L 65.828125 -6.40625 C 65.828125 -4.570312 65.21875 -3.046875 64 -1.828125 C 62.78125 -0.609375 61.253906 0 59.421875 0 L 7.625 0 L 7.625 -1.828125 C 11.070312 -2.441406 14.015625 -4.171875 16.453125 -7.015625 C 18.890625 -9.859375 20.109375 -13.109375 20.109375 -16.765625 L 20.109375 -188.953125 C 20.109375 -192.609375 18.890625 -195.859375 16.453125 -198.703125 C 14.015625 -201.546875 11.070312 -203.273438 7.625 -203.890625 L 7.625 -205.71875 L 59.734375 -213.34375 C 59.929688 -213.34375 60.082031 -213.34375 60.1875 -213.34375 C 60.289062 -213.34375 60.441406 -213.34375 60.640625 -213.34375 C 64.097656 -213.34375 65.828125 -211.507812 65.828125 -207.84375 L 65.828125 -146.28125 C 72.328125 -149.738281 79.640625 -151.875 87.765625 -152.6875 C 98.941406 -153.90625 109.609375 -151.46875 119.765625 -145.375 C 129.929688 -139.28125 138.414062 -130.695312 145.21875 -119.625 C 152.03125 -108.550781 156.144531 -95.898438 157.5625 -81.671875 Z M 76.1875 -11.28125 C 82.894531 -11.28125 88.988281 -14.328125 94.46875 -20.421875 C 99.957031 -26.515625 104.328125 -34.691406 107.578125 -44.953125 C 110.828125 -55.210938 112.453125 -66.539062 112.453125 -78.9375 C 112.453125 -91.53125 110.828125 -102.90625 107.578125 -113.0625 C 104.328125 -123.226562 99.957031 -131.359375 94.46875 -137.453125 C 88.988281 -143.546875 82.894531 -146.59375 76.1875 -146.59375 C 72.9375 -146.59375 69.484375 -145.78125 65.828125 -144.15625 L 65.828125 -13.71875 C 69.484375 -12.09375 72.9375 -11.28125 76.1875 -11.28125 Z M 76.1875 -11.28125 "/></g></g><g style="fill:#393939;fill-opacity:1;"><g transform="translate(182.340638, 283.417204)"><path style="stroke:none" d="M 135.9375 -22.859375 C 135.9375 -19.203125 137.15625 -15.953125 139.59375 -13.109375 C 142.03125 -10.265625 144.972656 -8.535156 148.421875 -7.921875 L 148.421875 -6.09375 L 96 1.53125 C 96 1.53125 95.945312 1.53125 95.84375 1.53125 C 95.75 1.53125 95.597656 1.53125 95.390625 1.53125 C 93.972656 1.53125 92.703125 0.972656 91.578125 -0.140625 C 90.460938 -1.265625 89.90625 -2.539062 89.90625 -3.96875 L 89.90625 -11.578125 C 86.25 -8.941406 81.320312 -6.097656 75.125 -3.046875 C 68.925781 0.00390625 61.5625 1.53125 53.03125 1.53125 C 43.476562 1.53125 34.84375 -1.007812 27.125 -6.09375 C 19.40625 -11.175781 14.425781 -17.984375 12.1875 -26.515625 C 9.75 -35.253906 10.660156 -43.785156 14.921875 -52.109375 C 19.191406 -60.441406 25.492188 -67.148438 33.828125 -72.234375 C 39.109375 -75.484375 45.8125 -78.582031 53.9375 -81.53125 C 62.070312 -84.476562 70.609375 -87.421875 79.546875 -90.359375 C 88.484375 -93.304688 96.863281 -96.351562 104.6875 -99.5 C 112.507812 -102.65625 118.910156 -106.113281 123.890625 -109.875 C 128.867188 -113.632812 131.359375 -117.847656 131.359375 -122.515625 C 131.359375 -126.585938 129.578125 -130.65625 126.015625 -134.71875 C 122.460938 -138.78125 118.25 -142.03125 113.375 -144.46875 C 107.488281 -147.3125 100.988281 -149.238281 93.875 -150.25 C 86.757812 -151.269531 79.441406 -151.171875 71.921875 -149.953125 C 60.347656 -148.328125 54.5625 -144.46875 54.5625 -138.375 C 54.5625 -134.71875 55.675781 -131.566406 57.90625 -128.921875 C 60.144531 -126.273438 62.328125 -123.476562 64.453125 -120.53125 C 66.585938 -117.59375 67.65625 -113.785156 67.65625 -109.109375 C 67.65625 -102.609375 65.316406 -97.070312 60.640625 -92.5 C 55.972656 -87.925781 50.390625 -85.640625 43.890625 -85.640625 C 37.390625 -85.640625 31.851562 -87.925781 27.28125 -92.5 C 22.707031 -97.070312 20.421875 -102.609375 20.421875 -109.109375 C 20.421875 -117.035156 23.160156 -123.992188 28.640625 -129.984375 C 34.128906 -135.984375 40.882812 -140.859375 48.90625 -144.609375 C 56.9375 -148.367188 64.507812 -150.757812 71.625 -151.78125 C 87.875 -154.21875 102.097656 -152.285156 114.296875 -145.984375 C 120.179688 -143.140625 125.257812 -139.125 129.53125 -133.9375 C 133.800781 -128.757812 135.9375 -122.414062 135.9375 -114.90625 Z M 89.90625 -13.71875 L 89.90625 -92.046875 C 85.84375 -90.210938 81.320312 -87.722656 76.34375 -84.578125 C 71.363281 -81.429688 67.046875 -77.164062 63.390625 -71.78125 C 59.734375 -66.394531 57.601562 -59.4375 57 -50.90625 C 56.59375 -43.582031 57.203125 -37.125 58.828125 -31.53125 C 60.453125 -25.945312 62.890625 -21.429688 66.140625 -17.984375 C 69.585938 -14.328125 73.597656 -12.09375 78.171875 -11.28125 C 82.742188 -10.46875 86.65625 -11.28125 89.90625 -13.71875 Z M 89.90625 -13.71875 "/></g></g><g style="fill:#393939;fill-opacity:1;"><g transform="translate(265.460553, 95.801029)"><path style="stroke:none" d="M 0.640625 -0.03125 L 2.75 -0.15625 C 3.257812 -0.207031 3.675781 -0.335938 4 -0.546875 C 4.332031 -0.765625 4.585938 -1.023438 4.765625 -1.328125 C 4.953125 -1.648438 5.078125 -2.003906 5.140625 -2.390625 C 5.203125 -2.773438 5.222656 -3.1875 5.203125 -3.625 C 5.160156 -4.207031 5.066406 -4.675781 4.921875 -5.03125 C 4.628906 -5.726562 4.273438 -6.1875 3.859375 -6.40625 C 4.046875 -6.59375 4.195312 -6.769531 4.3125 -6.9375 C 4.4375 -7.113281 4.535156 -7.304688 4.609375 -7.515625 C 4.691406 -7.703125 4.738281 -7.90625 4.75 -8.125 C 4.769531 -8.351562 4.773438 -8.601562 4.765625 -8.875 C 4.734375 -9.457031 4.632812 -9.9375 4.46875 -10.3125 C 4.3125 -10.695312 4.101562 -11.007812 3.84375 -11.25 C 3.5625 -11.46875 3.21875 -11.617188 2.8125 -11.703125 C 2.414062 -11.785156 1.960938 -11.8125 1.453125 -11.78125 L -0.046875 -11.6875 Z M 1.953125 -6.984375 L 1.78125 -10.109375 C 1.851562 -10.109375 1.960938 -10.109375 2.109375 -10.109375 C 2.253906 -10.109375 2.394531 -10.0625 2.53125 -9.96875 C 2.695312 -9.882812 2.832031 -9.738281 2.9375 -9.53125 C 3.039062 -9.332031 3.101562 -9.03125 3.125 -8.625 C 3.15625 -8.21875 3.128906 -7.90625 3.046875 -7.6875 C 2.960938 -7.476562 2.847656 -7.320312 2.703125 -7.21875 C 2.566406 -7.101562 2.425781 -7.035156 2.28125 -7.015625 C 2.132812 -6.992188 2.023438 -6.984375 1.953125 -6.984375 Z M 2.265625 -1.84375 L 2.046875 -5.421875 C 2.117188 -5.421875 2.226562 -5.421875 2.375 -5.421875 C 2.519531 -5.429688 2.664062 -5.382812 2.8125 -5.28125 C 2.96875 -5.1875 3.097656 -5.019531 3.203125 -4.78125 C 3.316406 -4.550781 3.390625 -4.195312 3.421875 -3.71875 C 3.453125 -3.238281 3.425781 -2.867188 3.34375 -2.609375 C 3.257812 -2.359375 3.144531 -2.175781 3 -2.0625 C 2.875 -1.945312 2.738281 -1.878906 2.59375 -1.859375 C 2.445312 -1.847656 2.335938 -1.84375 2.265625 -1.84375 Z M 2.265625 -1.84375 "/></g></g><g style="fill:#393939;fill-opacity:1;"><g transform="translate(277.128436, 95.570503)"><path style="stroke:none" d="M 3.6875 0.34375 L 5.390625 0.515625 L 4.84375 -5.21875 C 5.1875 -5.40625 5.457031 -5.734375 5.65625 -6.203125 C 5.851562 -6.671875 5.976562 -7.195312 6.03125 -7.78125 C 6.132812 -8.875 5.984375 -9.722656 5.578125 -10.328125 C 5.179688 -10.941406 4.472656 -11.300781 3.453125 -11.40625 L 1.75 -11.5625 L 0.640625 0.0625 L 2.34375 0.21875 L 2.8125 -4.6875 L 3.265625 -4.640625 Z M 2.953125 -6.265625 L 3.28125 -9.71875 C 3.394531 -9.707031 3.523438 -9.679688 3.671875 -9.640625 C 3.816406 -9.609375 3.945312 -9.523438 4.0625 -9.390625 C 4.1875 -9.273438 4.28125 -9.09375 4.34375 -8.84375 C 4.414062 -8.59375 4.429688 -8.269531 4.390625 -7.875 C 4.347656 -7.457031 4.269531 -7.140625 4.15625 -6.921875 C 4.050781 -6.703125 3.925781 -6.539062 3.78125 -6.4375 C 3.644531 -6.34375 3.5 -6.285156 3.34375 -6.265625 C 3.195312 -6.253906 3.066406 -6.253906 2.953125 -6.265625 Z M 2.953125 -6.265625 "/></g></g><g style="fill:#393939;fill-opacity:1;"><g transform="translate(288.643954, 97.109973)"><path style="stroke:none" d="M 0.15625 0.03125 L 1.765625 0.453125 L 2.671875 -1.78125 L 4.28125 -1.375 L 3.984375 1.015625 L 5.609375 1.421875 L 6.765625 -10.328125 L 4.734375 -10.84375 Z M 4.90625 -6.875 L 4.484375 -3.1875 L 3.34375 -3.46875 L 4.71875 -6.921875 L 4.84375 -7.21875 L 4.9375 -7.203125 Z M 4.90625 -6.875 "/></g></g><g style="fill:#393939;fill-opacity:1;"><g transform="translate(299.970789, 100.44782)"><path style="stroke:none" d="M 4.65625 -4.625 L 3.78125 1.625 L 5.1875 2.234375 L 9.796875 -8.484375 L 8.34375 -9.109375 L 5.734375 -3.03125 L 5.640625 -3.078125 L 5.71875 -3.625 L 6.59375 -9.859375 L 5.203125 -10.46875 L 0.59375 0.25 L 2.03125 0.875 L 4.640625 -5.21875 L 4.71875 -5.1875 Z M 4.65625 -4.625 "/></g></g><g style="fill:#393939;fill-opacity:1;"><g transform="translate(310.929011, 105.676195)"><path style="stroke:none" d="M 0.546875 0.34375 L 1.671875 1.0625 C 2.347656 1.476562 2.925781 1.726562 3.40625 1.8125 C 3.894531 1.90625 4.351562 1.832031 4.78125 1.59375 C 5.207031 1.34375 5.644531 0.914062 6.09375 0.3125 C 6.539062 -0.28125 7.070312 -1.0625 7.6875 -2.03125 C 8.300781 -3 8.78125 -3.816406 9.125 -4.484375 C 9.476562 -5.148438 9.679688 -5.738281 9.734375 -6.25 C 9.773438 -6.75 9.648438 -7.195312 9.359375 -7.59375 C 9.066406 -7.988281 8.582031 -8.394531 7.90625 -8.8125 L 6.78125 -9.53125 Z M 2.921875 -0.1875 L 7.328125 -7.15625 C 7.566406 -7 7.738281 -6.84375 7.84375 -6.6875 C 7.957031 -6.539062 7.976562 -6.332031 7.90625 -6.0625 C 7.863281 -5.925781 7.796875 -5.757812 7.703125 -5.5625 C 7.617188 -5.375 7.507812 -5.164062 7.375 -4.9375 C 7.238281 -4.6875 7.066406 -4.398438 6.859375 -4.078125 C 6.660156 -3.765625 6.4375 -3.40625 6.1875 -3 C 5.925781 -2.59375 5.695312 -2.226562 5.5 -1.90625 C 5.300781 -1.59375 5.125 -1.328125 4.96875 -1.109375 C 4.800781 -0.878906 4.65625 -0.6875 4.53125 -0.53125 C 4.40625 -0.375 4.289062 -0.25 4.1875 -0.15625 C 3.957031 0.0507812 3.75 0.132812 3.5625 0.09375 C 3.375 0.0625 3.160156 -0.03125 2.921875 -0.1875 Z M 2.921875 -0.1875 "/></g></g><g style="fill:#393939;fill-opacity:1;"><g transform="translate(320.698499, 112.453815)"><path style="stroke:none" d=""/></g></g><g style="fill:#393939;fill-opacity:1;"><g transform="translate(326.98146, 118.081114)"><path style="stroke:none" d="M 0.109375 0.109375 L 1.234375 1.34375 L 3.203125 -0.03125 L 4.328125 1.1875 L 2.765625 3.03125 L 3.90625 4.265625 L 11.328125 -4.90625 L 9.921875 -6.453125 Z M 7.875 -3.046875 L 5.5 -0.203125 L 4.703125 -1.0625 L 7.75 -3.1875 L 8.015625 -3.359375 L 8.078125 -3.296875 Z M 7.875 -3.046875 "/></g></g><g style="fill:#393939;fill-opacity:1;"><g transform="translate(334.609918, 127.120236)"><path style="stroke:none" d="M 10.078125 -5.9375 L 0.359375 0.53125 L 1.3125 1.96875 L 5.203125 -0.625 C 5.398438 -0.320312 5.644531 -0.0546875 5.9375 0.171875 C 6.238281 0.410156 6.585938 0.578125 6.984375 0.671875 C 7.359375 0.753906 7.78125 0.742188 8.25 0.640625 C 8.726562 0.535156 9.242188 0.300781 9.796875 -0.0625 C 10.359375 -0.4375 10.773438 -0.820312 11.046875 -1.21875 C 11.328125 -1.613281 11.503906 -2 11.578125 -2.375 C 11.628906 -2.78125 11.597656 -3.160156 11.484375 -3.515625 C 11.378906 -3.867188 11.226562 -4.195312 11.03125 -4.5 Z M 6.65625 -1.59375 L 9.59375 -3.53125 C 9.875 -3.101562 9.945312 -2.738281 9.8125 -2.4375 C 9.75 -2.28125 9.628906 -2.125 9.453125 -1.96875 C 9.273438 -1.8125 9.050781 -1.644531 8.78125 -1.46875 C 8.5 -1.28125 8.257812 -1.140625 8.0625 -1.046875 C 7.863281 -0.953125 7.6875 -0.910156 7.53125 -0.921875 C 7.226562 -0.941406 6.9375 -1.164062 6.65625 -1.59375 Z M 6.65625 -1.59375 "/></g></g><g style="fill:#393939;fill-opacity:1;"><g transform="translate(340.598687, 136.925756)"><path style="stroke:none" d="M 10.84375 -4.34375 L 0.265625 0.578125 L 1 2.140625 L 5.234375 0.171875 C 5.390625 0.503906 5.597656 0.804688 5.859375 1.078125 C 6.117188 1.347656 6.429688 1.5625 6.796875 1.71875 C 7.160156 1.851562 7.582031 1.90625 8.0625 1.875 C 8.539062 1.851562 9.082031 1.703125 9.6875 1.421875 C 10.289062 1.140625 10.757812 0.820312 11.09375 0.46875 C 11.4375 0.113281 11.671875 -0.242188 11.796875 -0.609375 C 11.921875 -0.992188 11.953125 -1.367188 11.890625 -1.734375 C 11.835938 -2.097656 11.734375 -2.445312 11.578125 -2.78125 Z M 6.828125 -0.578125 L 10 -2.0625 C 10.207031 -1.601562 10.226562 -1.222656 10.0625 -0.921875 C 9.976562 -0.785156 9.832031 -0.65625 9.625 -0.53125 C 9.425781 -0.40625 9.179688 -0.273438 8.890625 -0.140625 C 8.585938 0.00390625 8.332031 0.109375 8.125 0.171875 C 7.914062 0.242188 7.734375 0.265625 7.578125 0.234375 C 7.296875 0.160156 7.046875 -0.109375 6.828125 -0.578125 Z M 6.828125 -0.578125 "/></g></g><g style="fill:#393939;fill-opacity:1;"><g transform="translate(345.040266, 147.544597)"><path style="stroke:none" d="M 11.375 -2.71875 L 0.1875 0.609375 L 1.296875 4.375 L 2.984375 3.875 L 2.359375 1.765625 L 5.4375 0.84375 L 5.890625 2.359375 L 7.6875 1.828125 L 7.234375 0.3125 L 10.1875 -0.5625 L 10.8125 1.546875 L 12.484375 1.046875 Z M 11.375 -2.71875 "/></g></g><g style="fill:#393939;fill-opacity:1;"><g transform="translate(347.733312, 157.990943)"><path style="stroke:none" d="M 0.015625 0.15625 L 0.25 1.8125 L 2.65625 1.796875 L 2.890625 3.4375 L 0.578125 4.0625 L 0.8125 5.71875 L 12.125 2.328125 L 11.828125 0.265625 Z M 8.21875 1.921875 L 4.640625 2.9375 L 4.46875 1.765625 L 8.203125 1.734375 L 8.515625 1.75 L 8.53125 1.84375 Z M 8.21875 1.921875 "/></g></g><g style="fill:#393939;fill-opacity:1;"><g transform="translate(348.91608, 169.78612)"><path style="stroke:none" d="M 11.671875 0.71875 L 0 0.640625 L -0.03125 4.625 L 1.5625 4.640625 L 1.578125 2.375 L 11.65625 2.4375 Z M 11.671875 0.71875 "/></g></g></g></svg>