<svg xmlns="http://www.w3.org/2000/svg" xmlns:xlink="http://www.w3.org/1999/xlink" width="320" zoomAndPan="magnify" viewBox="0 0 240 98.999996" height="132" preserveAspectRatio="xMidYMid meet" version="1.2"><defs/><g id="d08ee7b770"><g style="fill:#444545;fill-opacity:1;"><g transform="translate(0.134473, 56.718368)"><path style="stroke:none" d="M 23.125 -11.984375 C 23.332031 -9.929688 23.117188 -8.007812 22.484375 -6.21875 C 21.859375 -4.425781 20.925781 -2.957031 19.6875 -1.8125 C 18.457031 -0.664062 17.023438 -0.00390625 15.390625 0.171875 C 14.367188 0.296875 13.375 0.1875 12.40625 -0.15625 C 11.4375 -0.5 10.519531 -1 9.65625 -1.65625 L 9.65625 -0.9375 C 9.65625 -0.664062 9.566406 -0.441406 9.390625 -0.265625 C 9.210938 -0.0859375 8.988281 0 8.71875 0 L 1.125 0 L 1.125 -0.265625 C 1.625 -0.359375 2.050781 -0.613281 2.40625 -1.03125 C 2.769531 -1.445312 2.953125 -1.921875 2.953125 -2.453125 L 2.953125 -27.71875 C 2.953125 -28.257812 2.769531 -28.738281 2.40625 -29.15625 C 2.050781 -29.570312 1.625 -29.828125 1.125 -29.921875 L 1.125 -30.1875 L 8.765625 -31.296875 C 8.796875 -31.296875 8.816406 -31.296875 8.828125 -31.296875 C 8.847656 -31.296875 8.875 -31.296875 8.90625 -31.296875 C 9.40625 -31.296875 9.65625 -31.03125 9.65625 -30.5 L 9.65625 -21.46875 C 10.613281 -21.96875 11.6875 -22.28125 12.875 -22.40625 C 14.519531 -22.582031 16.085938 -22.222656 17.578125 -21.328125 C 19.066406 -20.429688 20.3125 -19.171875 21.3125 -17.546875 C 22.3125 -15.921875 22.914062 -14.066406 23.125 -11.984375 Z M 11.171875 -1.65625 C 12.160156 -1.65625 13.054688 -2.101562 13.859375 -3 C 14.660156 -3.894531 15.300781 -5.09375 15.78125 -6.59375 C 16.257812 -8.101562 16.5 -9.765625 16.5 -11.578125 C 16.5 -13.429688 16.257812 -15.101562 15.78125 -16.59375 C 15.300781 -18.082031 14.660156 -19.273438 13.859375 -20.171875 C 13.054688 -21.066406 12.160156 -21.515625 11.171875 -21.515625 C 10.703125 -21.515625 10.195312 -21.394531 9.65625 -21.15625 L 9.65625 -2.015625 C 10.195312 -1.773438 10.703125 -1.65625 11.171875 -1.65625 Z M 11.171875 -1.65625 "/></g></g><g style="fill:#444545;fill-opacity:1;"><g transform="translate(23.117548, 56.718368)"><path style="stroke:none" d="M 15.390625 -22.84375 C 16.335938 -22.820312 17.15625 -22.484375 17.84375 -21.828125 C 18.53125 -21.171875 18.875 -20.363281 18.875 -19.40625 C 18.875 -18.457031 18.53125 -17.640625 17.84375 -16.953125 C 17.15625 -16.265625 16.335938 -15.921875 15.390625 -15.921875 C 14.460938 -15.921875 13.65625 -16.265625 12.96875 -16.953125 C 12.28125 -17.640625 11.9375 -18.457031 11.9375 -19.40625 C 11.9375 -19.707031 11.957031 -19.929688 12 -20.078125 C 12.050781 -20.222656 12.078125 -20.390625 12.078125 -20.578125 C 12.078125 -21.015625 11.835938 -21.234375 11.359375 -21.234375 C 10.941406 -21.234375 10.375 -21.054688 9.65625 -20.703125 L 9.65625 -2.453125 C 9.65625 -1.921875 9.832031 -1.445312 10.1875 -1.03125 C 10.550781 -0.613281 10.988281 -0.359375 11.5 -0.265625 L 11.5 0 L 1.125 0 L 1.125 -0.265625 C 1.625 -0.359375 2.050781 -0.613281 2.40625 -1.03125 C 2.769531 -1.445312 2.953125 -1.921875 2.953125 -2.453125 L 2.953125 -18.375 C 2.953125 -18.945312 2.769531 -19.429688 2.40625 -19.828125 C 2.050781 -20.234375 1.625 -20.484375 1.125 -20.578125 L 1.125 -20.84375 L 8.765625 -21.953125 C 8.796875 -21.953125 8.816406 -21.953125 8.828125 -21.953125 C 8.847656 -21.953125 8.875 -21.953125 8.90625 -21.953125 C 9.132812 -21.953125 9.316406 -21.878906 9.453125 -21.734375 C 9.585938 -21.585938 9.65625 -21.410156 9.65625 -21.203125 L 9.65625 -20.96875 C 10.457031 -21.382812 11.394531 -21.816406 12.46875 -22.265625 C 13.550781 -22.710938 14.523438 -22.90625 15.390625 -22.84375 Z M 15.390625 -22.84375 "/></g></g><g style="fill:#444545;fill-opacity:1;"><g transform="translate(41.316147, 56.718368)"><path style="stroke:none" d="M 19.9375 -3.359375 C 19.9375 -2.816406 20.113281 -2.335938 20.46875 -1.921875 C 20.832031 -1.503906 21.269531 -1.25 21.78125 -1.15625 L 21.78125 -0.890625 L 14.09375 0.21875 C 14.09375 0.21875 14.082031 0.21875 14.0625 0.21875 C 14.050781 0.21875 14.03125 0.21875 14 0.21875 C 13.789062 0.21875 13.601562 0.140625 13.4375 -0.015625 C 13.269531 -0.179688 13.1875 -0.367188 13.1875 -0.578125 L 13.1875 -1.703125 C 12.65625 -1.316406 11.929688 -0.898438 11.015625 -0.453125 C 10.109375 -0.00390625 9.03125 0.21875 7.78125 0.21875 C 6.375 0.21875 5.101562 -0.148438 3.96875 -0.890625 C 2.84375 -1.640625 2.113281 -2.640625 1.78125 -3.890625 C 1.425781 -5.171875 1.5625 -6.421875 2.1875 -7.640625 C 2.8125 -8.867188 3.738281 -9.851562 4.96875 -10.59375 C 5.738281 -11.070312 6.71875 -11.523438 7.90625 -11.953125 C 9.101562 -12.390625 10.359375 -12.820312 11.671875 -13.25 C 12.984375 -13.6875 14.210938 -14.132812 15.359375 -14.59375 C 16.503906 -15.0625 17.441406 -15.570312 18.171875 -16.125 C 18.910156 -16.675781 19.28125 -17.296875 19.28125 -17.984375 C 19.28125 -18.578125 19.015625 -19.171875 18.484375 -19.765625 C 17.960938 -20.359375 17.347656 -20.835938 16.640625 -21.203125 C 15.773438 -21.617188 14.816406 -21.898438 13.765625 -22.046875 C 12.722656 -22.191406 11.648438 -22.175781 10.546875 -22 C 8.847656 -21.757812 8 -21.191406 8 -20.296875 C 8 -19.765625 8.160156 -19.300781 8.484375 -18.90625 C 8.816406 -18.519531 9.140625 -18.109375 9.453125 -17.671875 C 9.765625 -17.242188 9.921875 -16.691406 9.921875 -16.015625 C 9.921875 -15.054688 9.578125 -14.238281 8.890625 -13.5625 C 8.210938 -12.894531 7.394531 -12.5625 6.4375 -12.5625 C 5.488281 -12.5625 4.675781 -12.894531 4 -13.5625 C 3.332031 -14.238281 3 -15.054688 3 -16.015625 C 3 -17.171875 3.398438 -18.1875 4.203125 -19.0625 C 5.003906 -19.945312 5.992188 -20.664062 7.171875 -21.21875 C 8.347656 -21.769531 9.460938 -22.117188 10.515625 -22.265625 C 12.898438 -22.628906 14.984375 -22.347656 16.765625 -21.421875 C 17.628906 -21.003906 18.375 -20.414062 19 -19.65625 C 19.625 -18.894531 19.9375 -17.960938 19.9375 -16.859375 Z M 13.1875 -2.015625 L 13.1875 -13.5 C 12.59375 -13.238281 11.929688 -12.875 11.203125 -12.40625 C 10.472656 -11.945312 9.835938 -11.320312 9.296875 -10.53125 C 8.765625 -9.738281 8.453125 -8.71875 8.359375 -7.46875 C 8.296875 -6.394531 8.382812 -5.445312 8.625 -4.625 C 8.863281 -3.8125 9.222656 -3.148438 9.703125 -2.640625 C 10.210938 -2.097656 10.800781 -1.765625 11.46875 -1.640625 C 12.132812 -1.523438 12.707031 -1.648438 13.1875 -2.015625 Z M 13.1875 -2.015625 "/></g></g><g style="fill:#444545;fill-opacity:1;"><g transform="translate(62.421202, 56.718368)"><path style="stroke:none" d="M 21.421875 -2.453125 C 21.421875 -1.921875 21.597656 -1.445312 21.953125 -1.03125 C 22.316406 -0.613281 22.75 -0.359375 23.25 -0.265625 L 23.25 0 L 12.875 0 L 12.875 -0.265625 C 13.382812 -0.359375 13.816406 -0.613281 14.171875 -1.03125 C 14.535156 -1.445312 14.71875 -1.921875 14.71875 -2.453125 L 14.71875 -15.65625 C 14.71875 -16.425781 14.910156 -17.035156 15.296875 -17.484375 C 15.679688 -17.929688 16.066406 -18.351562 16.453125 -18.75 C 16.835938 -19.15625 17.03125 -19.628906 17.03125 -20.171875 C 17.03125 -20.671875 16.75 -21.054688 16.1875 -21.328125 C 15.625 -21.597656 14.894531 -21.734375 14 -21.734375 C 13.007812 -21.734375 12.128906 -21.601562 11.359375 -21.34375 C 10.585938 -21.09375 10.019531 -20.878906 9.65625 -20.703125 L 9.65625 -2.453125 C 9.65625 -1.921875 9.832031 -1.445312 10.1875 -1.03125 C 10.550781 -0.613281 10.988281 -0.359375 11.5 -0.265625 L 11.5 0 L 1.125 0 L 1.125 -0.265625 C 1.625 -0.359375 2.050781 -0.613281 2.40625 -1.03125 C 2.769531 -1.445312 2.953125 -1.921875 2.953125 -2.453125 L 2.953125 -18.375 C 2.953125 -18.945312 2.769531 -19.429688 2.40625 -19.828125 C 2.050781 -20.234375 1.625 -20.484375 1.125 -20.578125 L 1.125 -20.84375 L 8.765625 -21.953125 C 8.796875 -21.953125 8.816406 -21.953125 8.828125 -21.953125 C 8.847656 -21.953125 8.875 -21.953125 8.90625 -21.953125 C 9.40625 -21.953125 9.65625 -21.703125 9.65625 -21.203125 L 9.65625 -21.015625 C 10.488281 -21.429688 11.421875 -21.765625 12.453125 -22.015625 C 13.484375 -22.273438 14.519531 -22.40625 15.5625 -22.40625 C 16.601562 -22.40625 17.570312 -22.203125 18.46875 -21.796875 C 19.363281 -21.398438 20.078125 -20.757812 20.609375 -19.875 C 21.148438 -19 21.421875 -17.800781 21.421875 -16.28125 Z M 21.421875 -2.453125 "/></g></g><g style="fill:#444545;fill-opacity:1;"><g transform="translate(85.001842, 56.718368)"><path style="stroke:none" d="M 21.78125 -3.359375 C 21.78125 -2.816406 21.957031 -2.335938 22.3125 -1.921875 C 22.664062 -1.503906 23.097656 -1.25 23.609375 -1.15625 L 23.609375 -0.890625 L 15.96875 0.21875 C 15.9375 0.21875 15.910156 0.21875 15.890625 0.21875 C 15.878906 0.21875 15.859375 0.21875 15.828125 0.21875 C 15.617188 0.21875 15.4375 0.140625 15.28125 -0.015625 C 15.132812 -0.179688 15.0625 -0.367188 15.0625 -0.578125 L 15.0625 -1.65625 C 14.226562 -1 13.328125 -0.5 12.359375 -0.15625 C 11.390625 0.1875 10.382812 0.296875 9.34375 0.171875 C 7.851562 0.0234375 6.519531 -0.546875 5.34375 -1.546875 C 4.164062 -2.546875 3.238281 -3.828125 2.5625 -5.390625 C 1.894531 -6.953125 1.5625 -8.660156 1.5625 -10.515625 C 1.5625 -12.265625 1.835938 -13.867188 2.390625 -15.328125 C 2.941406 -16.796875 3.679688 -18.054688 4.609375 -19.109375 C 5.535156 -20.171875 6.5625 -20.984375 7.6875 -21.546875 C 8.820312 -22.117188 9.972656 -22.40625 11.140625 -22.40625 C 11.910156 -22.40625 12.644531 -22.304688 13.34375 -22.109375 C 14.050781 -21.921875 14.625 -21.707031 15.0625 -21.46875 L 15.0625 -27.71875 C 15.0625 -28.257812 14.882812 -28.738281 14.53125 -29.15625 C 14.175781 -29.570312 13.742188 -29.828125 13.234375 -29.921875 L 13.234375 -30.1875 L 20.890625 -31.296875 C 20.910156 -31.296875 20.925781 -31.296875 20.9375 -31.296875 C 20.957031 -31.296875 20.984375 -31.296875 21.015625 -31.296875 C 21.523438 -31.296875 21.78125 -31.03125 21.78125 -30.5 Z M 13.59375 -1.65625 C 14.039062 -1.65625 14.53125 -1.773438 15.0625 -2.015625 L 15.0625 -21.15625 C 14.53125 -21.394531 14.039062 -21.515625 13.59375 -21.515625 C 12.613281 -21.515625 11.71875 -21.066406 10.90625 -20.171875 C 10.101562 -19.273438 9.457031 -18.082031 8.96875 -16.59375 C 8.476562 -15.101562 8.234375 -13.429688 8.234375 -11.578125 C 8.234375 -9.765625 8.476562 -8.101562 8.96875 -6.59375 C 9.457031 -5.09375 10.101562 -3.894531 10.90625 -3 C 11.71875 -2.101562 12.613281 -1.65625 13.59375 -1.65625 Z M 13.59375 -1.65625 "/></g></g><g style="fill:#444545;fill-opacity:1;"><g transform="translate(107.940203, 56.718368)"><path style="stroke:none" d=""/></g></g><g style="fill:#444545;fill-opacity:1;"><g transform="translate(118.671452, 56.718368)"><path style="stroke:none" d="M 19.9375 -3.359375 C 19.9375 -2.816406 20.113281 -2.335938 20.46875 -1.921875 C 20.832031 -1.503906 21.269531 -1.25 21.78125 -1.15625 L 21.78125 -0.890625 L 14.09375 0.21875 C 14.09375 0.21875 14.082031 0.21875 14.0625 0.21875 C 14.050781 0.21875 14.03125 0.21875 14 0.21875 C 13.789062 0.21875 13.601562 0.140625 13.4375 -0.015625 C 13.269531 -0.179688 13.1875 -0.367188 13.1875 -0.578125 L 13.1875 -1.703125 C 12.65625 -1.316406 11.929688 -0.898438 11.015625 -0.453125 C 10.109375 -0.00390625 9.03125 0.21875 7.78125 0.21875 C 6.375 0.21875 5.101562 -0.148438 3.96875 -0.890625 C 2.84375 -1.640625 2.113281 -2.640625 1.78125 -3.890625 C 1.425781 -5.171875 1.5625 -6.421875 2.1875 -7.640625 C 2.8125 -8.867188 3.738281 -9.851562 4.96875 -10.59375 C 5.738281 -11.070312 6.71875 -11.523438 7.90625 -11.953125 C 9.101562 -12.390625 10.359375 -12.820312 11.671875 -13.25 C 12.984375 -13.6875 14.210938 -14.132812 15.359375 -14.59375 C 16.503906 -15.0625 17.441406 -15.570312 18.171875 -16.125 C 18.910156 -16.675781 19.28125 -17.296875 19.28125 -17.984375 C 19.28125 -18.578125 19.015625 -19.171875 18.484375 -19.765625 C 17.960938 -20.359375 17.347656 -20.835938 16.640625 -21.203125 C 15.773438 -21.617188 14.816406 -21.898438 13.765625 -22.046875 C 12.722656 -22.191406 11.648438 -22.175781 10.546875 -22 C 8.847656 -21.757812 8 -21.191406 8 -20.296875 C 8 -19.765625 8.160156 -19.300781 8.484375 -18.90625 C 8.816406 -18.519531 9.140625 -18.109375 9.453125 -17.671875 C 9.765625 -17.242188 9.921875 -16.691406 9.921875 -16.015625 C 9.921875 -15.054688 9.578125 -14.238281 8.890625 -13.5625 C 8.210938 -12.894531 7.394531 -12.5625 6.4375 -12.5625 C 5.488281 -12.5625 4.675781 -12.894531 4 -13.5625 C 3.332031 -14.238281 3 -15.054688 3 -16.015625 C 3 -17.171875 3.398438 -18.1875 4.203125 -19.0625 C 5.003906 -19.945312 5.992188 -20.664062 7.171875 -21.21875 C 8.347656 -21.769531 9.460938 -22.117188 10.515625 -22.265625 C 12.898438 -22.628906 14.984375 -22.347656 16.765625 -21.421875 C 17.628906 -21.003906 18.375 -20.414062 19 -19.65625 C 19.625 -18.894531 19.9375 -17.960938 19.9375 -16.859375 Z M 13.1875 -2.015625 L 13.1875 -13.5 C 12.59375 -13.238281 11.929688 -12.875 11.203125 -12.40625 C 10.472656 -11.945312 9.835938 -11.320312 9.296875 -10.53125 C 8.765625 -9.738281 8.453125 -8.71875 8.359375 -7.46875 C 8.296875 -6.394531 8.382812 -5.445312 8.625 -4.625 C 8.863281 -3.8125 9.222656 -3.148438 9.703125 -2.640625 C 10.210938 -2.097656 10.800781 -1.765625 11.46875 -1.640625 C 12.132812 -1.523438 12.707031 -1.648438 13.1875 -2.015625 Z M 13.1875 -2.015625 "/></g></g><g style="fill:#444545;fill-opacity:1;"><g transform="translate(139.776493, 56.718368)"><path style="stroke:none" d="M 12.875 -21.953125 C 14.101562 -22.078125 15.316406 -21.921875 16.515625 -21.484375 C 17.722656 -21.054688 18.828125 -20.378906 19.828125 -19.453125 C 20.828125 -18.523438 21.625 -17.390625 22.21875 -16.046875 C 22.820312 -14.710938 23.125 -13.207031 23.125 -11.53125 C 23.125 -9.539062 22.785156 -7.820312 22.109375 -6.375 C 21.441406 -4.925781 20.578125 -3.707031 19.515625 -2.71875 C 18.460938 -1.738281 17.320312 -0.9375 16.09375 -0.3125 C 14.875 0.3125 13.691406 0.816406 12.546875 1.203125 C 11.398438 1.585938 10.4375 1.914062 9.65625 2.1875 L 9.65625 9.921875 C 9.65625 10.160156 9.566406 10.375 9.390625 10.5625 C 9.210938 10.757812 8.988281 10.859375 8.71875 10.859375 L 1.125 10.859375 L 1.125 10.59375 C 1.625 10.476562 2.050781 10.21875 2.40625 9.8125 C 2.769531 9.414062 2.953125 8.929688 2.953125 8.359375 L 2.953125 -18.375 C 2.953125 -18.945312 2.769531 -19.429688 2.40625 -19.828125 C 2.050781 -20.234375 1.625 -20.484375 1.125 -20.578125 L 1.125 -20.84375 L 8.765625 -21.953125 C 8.796875 -21.953125 8.816406 -21.953125 8.828125 -21.953125 C 8.847656 -21.953125 8.875 -21.953125 8.90625 -21.953125 C 9.132812 -21.953125 9.316406 -21.878906 9.453125 -21.734375 C 9.585938 -21.585938 9.65625 -21.410156 9.65625 -21.203125 L 9.65625 -20.96875 C 10.132812 -21.207031 10.640625 -21.414062 11.171875 -21.59375 C 11.710938 -21.78125 12.28125 -21.898438 12.875 -21.953125 Z M 9.65625 1.78125 C 10.457031 1.363281 11.257812 0.832031 12.0625 0.1875 C 12.875 -0.445312 13.613281 -1.253906 14.28125 -2.234375 C 14.957031 -3.222656 15.492188 -4.4375 15.890625 -5.875 C 16.296875 -7.320312 16.5 -9.078125 16.5 -11.140625 C 16.5 -12.984375 16.257812 -14.648438 15.78125 -16.140625 C 15.300781 -17.628906 14.660156 -18.820312 13.859375 -19.71875 C 13.054688 -20.613281 12.160156 -21.0625 11.171875 -21.0625 C 10.703125 -21.0625 10.195312 -20.941406 9.65625 -20.703125 Z M 9.65625 1.78125 "/></g></g><g style="fill:#444545;fill-opacity:1;"><g transform="translate(162.670155, 56.718368)"><path style="stroke:none" d="M 12.875 -21.953125 C 14.101562 -22.078125 15.316406 -21.921875 16.515625 -21.484375 C 17.722656 -21.054688 18.828125 -20.378906 19.828125 -19.453125 C 20.828125 -18.523438 21.625 -17.390625 22.21875 -16.046875 C 22.820312 -14.710938 23.125 -13.207031 23.125 -11.53125 C 23.125 -9.539062 22.785156 -7.820312 22.109375 -6.375 C 21.441406 -4.925781 20.578125 -3.707031 19.515625 -2.71875 C 18.460938 -1.738281 17.320312 -0.9375 16.09375 -0.3125 C 14.875 0.3125 13.691406 0.816406 12.546875 1.203125 C 11.398438 1.585938 10.4375 1.914062 9.65625 2.1875 L 9.65625 9.921875 C 9.65625 10.160156 9.566406 10.375 9.390625 10.5625 C 9.210938 10.757812 8.988281 10.859375 8.71875 10.859375 L 1.125 10.859375 L 1.125 10.59375 C 1.625 10.476562 2.050781 10.21875 2.40625 9.8125 C 2.769531 9.414062 2.953125 8.929688 2.953125 8.359375 L 2.953125 -18.375 C 2.953125 -18.945312 2.769531 -19.429688 2.40625 -19.828125 C 2.050781 -20.234375 1.625 -20.484375 1.125 -20.578125 L 1.125 -20.84375 L 8.765625 -21.953125 C 8.796875 -21.953125 8.816406 -21.953125 8.828125 -21.953125 C 8.847656 -21.953125 8.875 -21.953125 8.90625 -21.953125 C 9.132812 -21.953125 9.316406 -21.878906 9.453125 -21.734375 C 9.585938 -21.585938 9.65625 -21.410156 9.65625 -21.203125 L 9.65625 -20.96875 C 10.132812 -21.207031 10.640625 -21.414062 11.171875 -21.59375 C 11.710938 -21.78125 12.28125 -21.898438 12.875 -21.953125 Z M 9.65625 1.78125 C 10.457031 1.363281 11.257812 0.832031 12.0625 0.1875 C 12.875 -0.445312 13.613281 -1.253906 14.28125 -2.234375 C 14.957031 -3.222656 15.492188 -4.4375 15.890625 -5.875 C 16.296875 -7.320312 16.5 -9.078125 16.5 -11.140625 C 16.5 -12.984375 16.257812 -14.648438 15.78125 -16.140625 C 15.300781 -17.628906 14.660156 -18.820312 13.859375 -19.71875 C 13.054688 -20.613281 12.160156 -21.0625 11.171875 -21.0625 C 10.703125 -21.0625 10.195312 -20.941406 9.65625 -20.703125 Z M 9.65625 1.78125 "/></g></g><g style="fill:#444545;fill-opacity:1;"><g transform="translate(185.563788, 56.718368)"><path style="stroke:none" d="M 15.5625 -2.859375 C 16.425781 -2.859375 17.253906 -3.066406 18.046875 -3.484375 C 18.835938 -3.898438 19.546875 -4.484375 20.171875 -5.234375 L 20.390625 -5.09375 C 19.492188 -3.488281 18.285156 -2.203125 16.765625 -1.234375 C 15.242188 -0.265625 13.578125 0.21875 11.765625 0.21875 C 9.878906 0.21875 8.171875 -0.285156 6.640625 -1.296875 C 5.109375 -2.304688 3.878906 -3.664062 2.953125 -5.375 C 2.023438 -7.09375 1.5625 -9 1.5625 -11.09375 C 1.5625 -13.175781 2.023438 -15.070312 2.953125 -16.78125 C 3.878906 -18.5 5.109375 -19.863281 6.640625 -20.875 C 8.171875 -21.894531 9.878906 -22.40625 11.765625 -22.40625 C 13.398438 -22.40625 14.863281 -22.015625 16.15625 -21.234375 C 17.457031 -20.460938 18.546875 -19.410156 19.421875 -18.078125 C 20.304688 -16.753906 20.910156 -15.242188 21.234375 -13.546875 L 8.265625 -13.546875 C 8.265625 -11.578125 8.59375 -9.78125 9.25 -8.15625 C 9.90625 -6.53125 10.785156 -5.238281 11.890625 -4.28125 C 12.992188 -3.332031 14.21875 -2.859375 15.5625 -2.859375 Z M 11.765625 -22.140625 C 11.140625 -22.140625 10.625 -21.90625 10.21875 -21.4375 C 9.8125 -20.976562 9.472656 -20.382812 9.203125 -19.65625 C 8.941406 -18.925781 8.75 -18.171875 8.625 -17.390625 C 8.507812 -16.617188 8.421875 -15.90625 8.359375 -15.25 C 8.296875 -14.59375 8.265625 -14.113281 8.265625 -13.8125 L 15.15625 -13.8125 C 14.882812 -19.363281 13.753906 -22.140625 11.765625 -22.140625 Z M 11.765625 -22.140625 "/></g></g><g style="fill:#444545;fill-opacity:1;"><g transform="translate(206.132268, 56.718368)"><path style="stroke:none" d="M 19.9375 -3.359375 C 19.9375 -2.816406 20.113281 -2.335938 20.46875 -1.921875 C 20.832031 -1.503906 21.269531 -1.25 21.78125 -1.15625 L 21.78125 -0.890625 L 14.09375 0.21875 C 14.09375 0.21875 14.082031 0.21875 14.0625 0.21875 C 14.050781 0.21875 14.03125 0.21875 14 0.21875 C 13.789062 0.21875 13.601562 0.140625 13.4375 -0.015625 C 13.269531 -0.179688 13.1875 -0.367188 13.1875 -0.578125 L 13.1875 -1.703125 C 12.65625 -1.316406 11.929688 -0.898438 11.015625 -0.453125 C 10.109375 -0.00390625 9.03125 0.21875 7.78125 0.21875 C 6.375 0.21875 5.101562 -0.148438 3.96875 -0.890625 C 2.84375 -1.640625 2.113281 -2.640625 1.78125 -3.890625 C 1.425781 -5.171875 1.5625 -6.421875 2.1875 -7.640625 C 2.8125 -8.867188 3.738281 -9.851562 4.96875 -10.59375 C 5.738281 -11.070312 6.71875 -11.523438 7.90625 -11.953125 C 9.101562 -12.390625 10.359375 -12.820312 11.671875 -13.25 C 12.984375 -13.6875 14.210938 -14.132812 15.359375 -14.59375 C 16.503906 -15.0625 17.441406 -15.570312 18.171875 -16.125 C 18.910156 -16.675781 19.28125 -17.296875 19.28125 -17.984375 C 19.28125 -18.578125 19.015625 -19.171875 18.484375 -19.765625 C 17.960938 -20.359375 17.347656 -20.835938 16.640625 -21.203125 C 15.773438 -21.617188 14.816406 -21.898438 13.765625 -22.046875 C 12.722656 -22.191406 11.648438 -22.175781 10.546875 -22 C 8.847656 -21.757812 8 -21.191406 8 -20.296875 C 8 -19.765625 8.160156 -19.300781 8.484375 -18.90625 C 8.816406 -18.519531 9.140625 -18.109375 9.453125 -17.671875 C 9.765625 -17.242188 9.921875 -16.691406 9.921875 -16.015625 C 9.921875 -15.054688 9.578125 -14.238281 8.890625 -13.5625 C 8.210938 -12.894531 7.394531 -12.5625 6.4375 -12.5625 C 5.488281 -12.5625 4.675781 -12.894531 4 -13.5625 C 3.332031 -14.238281 3 -15.054688 3 -16.015625 C 3 -17.171875 3.398438 -18.1875 4.203125 -19.0625 C 5.003906 -19.945312 5.992188 -20.664062 7.171875 -21.21875 C 8.347656 -21.769531 9.460938 -22.117188 10.515625 -22.265625 C 12.898438 -22.628906 14.984375 -22.347656 16.765625 -21.421875 C 17.628906 -21.003906 18.375 -20.414062 19 -19.65625 C 19.625 -18.894531 19.9375 -17.960938 19.9375 -16.859375 Z M 13.1875 -2.015625 L 13.1875 -13.5 C 12.59375 -13.238281 11.929688 -12.875 11.203125 -12.40625 C 10.472656 -11.945312 9.835938 -11.320312 9.296875 -10.53125 C 8.765625 -9.738281 8.453125 -8.71875 8.359375 -7.46875 C 8.296875 -6.394531 8.382812 -5.445312 8.625 -4.625 C 8.863281 -3.8125 9.222656 -3.148438 9.703125 -2.640625 C 10.210938 -2.097656 10.800781 -1.765625 11.46875 -1.640625 C 12.132812 -1.523438 12.707031 -1.648438 13.1875 -2.015625 Z M 13.1875 -2.015625 "/></g></g><g style="fill:#444545;fill-opacity:1;"><g transform="translate(227.237338, 56.718368)"><path style="stroke:none" d="M 9.65625 -30.5 L 9.65625 -2.453125 C 9.65625 -1.921875 9.832031 -1.445312 10.1875 -1.03125 C 10.550781 -0.613281 10.988281 -0.359375 11.5 -0.265625 L 11.5 0 L 1.125 0 L 1.125 -0.265625 C 1.625 -0.359375 2.050781 -0.613281 2.40625 -1.03125 C 2.769531 -1.445312 2.953125 -1.921875 2.953125 -2.453125 L 2.953125 -27.71875 C 2.953125 -28.257812 2.769531 -28.738281 2.40625 -29.15625 C 2.050781 -29.570312 1.625 -29.828125 1.125 -29.921875 L 1.125 -30.1875 L 8.765625 -31.296875 C 8.796875 -31.296875 8.816406 -31.296875 8.828125 -31.296875 C 8.847656 -31.296875 8.875 -31.296875 8.90625 -31.296875 C 9.40625 -31.296875 9.65625 -31.03125 9.65625 -30.5 Z M 9.65625 -30.5 "/></g></g><g style="fill:#444545;fill-opacity:1;"><g transform="translate(174.9586, 63.209465)"><path style="stroke:none" d="M 2.046875 -0.59375 L 0.84375 -0.59375 L 0.640625 0 L 0.140625 0 L 1.171875 -2.875 L 1.71875 -2.875 L 2.75 0 L 2.25 0 Z M 1.90625 -0.96875 L 1.4375 -2.3125 L 0.96875 -0.96875 Z M 1.90625 -0.96875 "/></g></g><g style="fill:#444545;fill-opacity:1;"><g transform="translate(177.845502, 63.209465)"><path style="stroke:none" d="M 0.78125 -2.5 L 0.78125 -1.65625 L 1.78125 -1.65625 L 1.78125 -1.265625 L 0.78125 -1.265625 L 0.78125 -0.390625 L 1.90625 -0.390625 L 1.90625 0 L 0.3125 0 L 0.3125 -2.875 L 1.90625 -2.875 L 1.90625 -2.5 Z M 0.78125 -2.5 "/></g></g><g style="fill:#444545;fill-opacity:1;"><g transform="translate(180.015855, 63.209465)"><path style="stroke:none" d="M 1.265625 0.03125 C 1.066406 0.03125 0.890625 0 0.734375 -0.0625 C 0.578125 -0.132812 0.453125 -0.234375 0.359375 -0.359375 C 0.273438 -0.484375 0.234375 -0.628906 0.234375 -0.796875 L 0.75 -0.796875 C 0.757812 -0.671875 0.804688 -0.566406 0.890625 -0.484375 C 0.972656 -0.410156 1.097656 -0.375 1.265625 -0.375 C 1.421875 -0.375 1.546875 -0.410156 1.640625 -0.484375 C 1.734375 -0.566406 1.78125 -0.671875 1.78125 -0.796875 C 1.78125 -0.890625 1.75 -0.96875 1.6875 -1.03125 C 1.632812 -1.09375 1.566406 -1.140625 1.484375 -1.171875 C 1.398438 -1.203125 1.28125 -1.238281 1.125 -1.28125 C 0.9375 -1.320312 0.785156 -1.367188 0.671875 -1.421875 C 0.554688 -1.472656 0.457031 -1.550781 0.375 -1.65625 C 0.289062 -1.769531 0.25 -1.914062 0.25 -2.09375 C 0.25 -2.257812 0.289062 -2.40625 0.375 -2.53125 C 0.457031 -2.65625 0.570312 -2.75 0.71875 -2.8125 C 0.863281 -2.882812 1.035156 -2.921875 1.234375 -2.921875 C 1.515625 -2.921875 1.742188 -2.847656 1.921875 -2.703125 C 2.097656 -2.566406 2.195312 -2.375 2.21875 -2.125 L 1.703125 -2.125 C 1.691406 -2.238281 1.640625 -2.332031 1.546875 -2.40625 C 1.453125 -2.476562 1.332031 -2.515625 1.1875 -2.515625 C 1.050781 -2.515625 0.941406 -2.476562 0.859375 -2.40625 C 0.773438 -2.34375 0.734375 -2.242188 0.734375 -2.109375 C 0.734375 -2.023438 0.757812 -1.953125 0.8125 -1.890625 C 0.863281 -1.835938 0.929688 -1.789062 1.015625 -1.75 C 1.097656 -1.71875 1.210938 -1.6875 1.359375 -1.65625 C 1.546875 -1.601562 1.695312 -1.550781 1.8125 -1.5 C 1.9375 -1.445312 2.039062 -1.363281 2.125 -1.25 C 2.207031 -1.144531 2.25 -1 2.25 -0.8125 C 2.25 -0.664062 2.207031 -0.523438 2.125 -0.390625 C 2.050781 -0.265625 1.9375 -0.160156 1.78125 -0.078125 C 1.632812 -0.00390625 1.460938 0.03125 1.265625 0.03125 Z M 1.265625 0.03125 "/></g></g><g style="fill:#444545;fill-opacity:1;"><g transform="translate(182.517559, 63.209465)"><path style="stroke:none" d="M 2.171875 -2.875 L 2.171875 -2.5 L 1.40625 -2.5 L 1.40625 0 L 0.9375 0 L 0.9375 -2.5 L 0.15625 -2.5 L 0.15625 -2.875 Z M 2.171875 -2.875 "/></g></g><g style="fill:#444545;fill-opacity:1;"><g transform="translate(184.853591, 63.209465)"><path style="stroke:none" d="M 2.609375 -2.875 L 2.609375 0 L 2.140625 0 L 2.140625 -1.265625 L 0.78125 -1.265625 L 0.78125 0 L 0.3125 0 L 0.3125 -2.875 L 0.78125 -2.875 L 0.78125 -1.640625 L 2.140625 -1.640625 L 2.140625 -2.875 Z M 2.609375 -2.875 "/></g></g><g style="fill:#444545;fill-opacity:1;"><g transform="translate(187.773626, 63.209465)"><path style="stroke:none" d="M 0.78125 -2.5 L 0.78125 -1.65625 L 1.78125 -1.65625 L 1.78125 -1.265625 L 0.78125 -1.265625 L 0.78125 -0.390625 L 1.90625 -0.390625 L 1.90625 0 L 0.3125 0 L 0.3125 -2.875 L 1.90625 -2.875 L 1.90625 -2.5 Z M 0.78125 -2.5 "/></g></g><g style="fill:#444545;fill-opacity:1;"><g transform="translate(189.943978, 63.209465)"><path style="stroke:none" d="M 2.171875 -2.875 L 2.171875 -2.5 L 1.40625 -2.5 L 1.40625 0 L 0.9375 0 L 0.9375 -2.5 L 0.15625 -2.5 L 0.15625 -2.875 Z M 2.171875 -2.875 "/></g></g><g style="fill:#444545;fill-opacity:1;"><g transform="translate(192.28001, 63.209465)"><path style="stroke:none" d="M 0.78125 -2.875 L 0.78125 0 L 0.3125 0 L 0.3125 -2.875 Z M 0.78125 -2.875 "/></g></g><g style="fill:#444545;fill-opacity:1;"><g transform="translate(193.373473, 63.209465)"><path style="stroke:none" d="M 0.15625 -1.4375 C 0.15625 -1.726562 0.21875 -1.984375 0.34375 -2.203125 C 0.476562 -2.421875 0.65625 -2.59375 0.875 -2.71875 C 1.101562 -2.851562 1.351562 -2.921875 1.625 -2.921875 C 1.925781 -2.921875 2.195312 -2.84375 2.4375 -2.6875 C 2.675781 -2.539062 2.847656 -2.328125 2.953125 -2.046875 L 2.390625 -2.046875 C 2.316406 -2.203125 2.210938 -2.316406 2.078125 -2.390625 C 1.953125 -2.460938 1.800781 -2.5 1.625 -2.5 C 1.4375 -2.5 1.265625 -2.457031 1.109375 -2.375 C 0.960938 -2.289062 0.847656 -2.164062 0.765625 -2 C 0.679688 -1.84375 0.640625 -1.65625 0.640625 -1.4375 C 0.640625 -1.226562 0.679688 -1.039062 0.765625 -0.875 C 0.847656 -0.71875 0.960938 -0.597656 1.109375 -0.515625 C 1.265625 -0.429688 1.4375 -0.390625 1.625 -0.390625 C 1.800781 -0.390625 1.953125 -0.425781 2.078125 -0.5 C 2.210938 -0.570312 2.316406 -0.6875 2.390625 -0.84375 L 2.953125 -0.84375 C 2.847656 -0.5625 2.675781 -0.34375 2.4375 -0.1875 C 2.195312 -0.0390625 1.925781 0.03125 1.625 0.03125 C 1.351562 0.03125 1.101562 -0.03125 0.875 -0.15625 C 0.65625 -0.289062 0.476562 -0.46875 0.34375 -0.6875 C 0.21875 -0.90625 0.15625 -1.15625 0.15625 -1.4375 Z M 0.15625 -1.4375 "/></g></g><g style="fill:#444545;fill-opacity:1;"><g transform="translate(196.575158, 63.209465)"><path style="stroke:none" d=""/></g></g><g style="fill:#444545;fill-opacity:1;"><g transform="translate(197.652053, 63.209465)"><path style="stroke:none" d="M 3.34375 -2.875 L 3.34375 0 L 2.875 0 L 2.875 -1.96875 L 1.984375 0 L 1.671875 0 L 0.78125 -1.96875 L 0.78125 0 L 0.3125 0 L 0.3125 -2.875 L 0.8125 -2.875 L 1.828125 -0.625 L 2.84375 -2.875 Z M 3.34375 -2.875 "/></g></g><g style="fill:#444545;fill-opacity:1;"><g transform="translate(201.305207, 63.209465)"><path style="stroke:none" d="M 2.046875 -0.59375 L 0.84375 -0.59375 L 0.640625 0 L 0.140625 0 L 1.171875 -2.875 L 1.71875 -2.875 L 2.75 0 L 2.25 0 Z M 1.90625 -0.96875 L 1.4375 -2.3125 L 0.96875 -0.96875 Z M 1.90625 -0.96875 "/></g></g><g style="fill:#444545;fill-opacity:1;"><g transform="translate(204.192109, 63.209465)"><path style="stroke:none" d="M 1.8125 0 L 1.140625 -1.15625 L 0.78125 -1.15625 L 0.78125 0 L 0.3125 0 L 0.3125 -2.875 L 1.296875 -2.875 C 1.523438 -2.875 1.710938 -2.832031 1.859375 -2.75 C 2.015625 -2.675781 2.128906 -2.570312 2.203125 -2.4375 C 2.285156 -2.3125 2.328125 -2.171875 2.328125 -2.015625 C 2.328125 -1.828125 2.269531 -1.65625 2.15625 -1.5 C 2.050781 -1.351562 1.882812 -1.25 1.65625 -1.1875 L 2.375 0 Z M 0.78125 -1.53125 L 1.296875 -1.53125 C 1.472656 -1.53125 1.609375 -1.570312 1.703125 -1.65625 C 1.796875 -1.75 1.84375 -1.867188 1.84375 -2.015625 C 1.84375 -2.160156 1.796875 -2.273438 1.703125 -2.359375 C 1.617188 -2.453125 1.484375 -2.5 1.296875 -2.5 L 0.78125 -2.5 Z M 0.78125 -1.53125 "/></g></g><g style="fill:#444545;fill-opacity:1;"><g transform="translate(206.809791, 63.209465)"><path style="stroke:none" d="M 1.890625 0 L 0.78125 -1.28125 L 0.78125 0 L 0.3125 0 L 0.3125 -2.875 L 0.78125 -2.875 L 0.78125 -1.5625 L 1.90625 -2.875 L 2.5 -2.875 L 1.234375 -1.4375 L 2.515625 0 Z M 1.890625 0 "/></g></g><g style="fill:#444545;fill-opacity:1;"><g transform="translate(209.431612, 63.209465)"><path style="stroke:none" d="M 0.78125 -2.5 L 0.78125 -1.65625 L 1.78125 -1.65625 L 1.78125 -1.265625 L 0.78125 -1.265625 L 0.78125 -0.390625 L 1.90625 -0.390625 L 1.90625 0 L 0.3125 0 L 0.3125 -2.875 L 1.90625 -2.875 L 1.90625 -2.5 Z M 0.78125 -2.5 "/></g></g><g style="fill:#444545;fill-opacity:1;"><g transform="translate(211.601965, 63.209465)"><path style="stroke:none" d="M 2.171875 -2.875 L 2.171875 -2.5 L 1.40625 -2.5 L 1.40625 0 L 0.9375 0 L 0.9375 -2.5 L 0.15625 -2.5 L 0.15625 -2.875 Z M 2.171875 -2.875 "/></g></g><g style="fill:#444545;fill-opacity:1;"><g transform="translate(213.937996, 63.209465)"><path style="stroke:none" d="M 0.78125 -2.875 L 0.78125 0 L 0.3125 0 L 0.3125 -2.875 Z M 0.78125 -2.875 "/></g></g><g style="fill:#444545;fill-opacity:1;"><g transform="translate(215.031459, 63.209465)"><path style="stroke:none" d="M 2.671875 0 L 2.203125 0 L 0.78125 -2.15625 L 0.78125 0 L 0.3125 0 L 0.3125 -2.875 L 0.78125 -2.875 L 2.203125 -0.734375 L 2.203125 -2.875 L 2.671875 -2.875 Z M 2.671875 0 "/></g></g><g style="fill:#444545;fill-opacity:1;"><g transform="translate(218.017765, 63.209465)"><path style="stroke:none" d="M 2.390625 -2.046875 C 2.316406 -2.191406 2.210938 -2.300781 2.078125 -2.375 C 1.953125 -2.445312 1.800781 -2.484375 1.625 -2.484375 C 1.4375 -2.484375 1.265625 -2.441406 1.109375 -2.359375 C 0.960938 -2.273438 0.847656 -2.148438 0.765625 -1.984375 C 0.679688 -1.828125 0.640625 -1.644531 0.640625 -1.4375 C 0.640625 -1.238281 0.679688 -1.054688 0.765625 -0.890625 C 0.847656 -0.734375 0.960938 -0.613281 1.109375 -0.53125 C 1.265625 -0.445312 1.4375 -0.40625 1.625 -0.40625 C 1.882812 -0.40625 2.09375 -0.472656 2.25 -0.609375 C 2.40625 -0.753906 2.503906 -0.953125 2.546875 -1.203125 L 1.46875 -1.203125 L 1.46875 -1.578125 L 3.046875 -1.578125 L 3.046875 -1.203125 C 3.015625 -0.984375 2.929688 -0.78125 2.796875 -0.59375 C 2.671875 -0.40625 2.503906 -0.253906 2.296875 -0.140625 C 2.097656 -0.0234375 1.875 0.03125 1.625 0.03125 C 1.351562 0.03125 1.101562 -0.03125 0.875 -0.15625 C 0.65625 -0.289062 0.476562 -0.46875 0.34375 -0.6875 C 0.21875 -0.90625 0.15625 -1.15625 0.15625 -1.4375 C 0.15625 -1.726562 0.21875 -1.984375 0.34375 -2.203125 C 0.476562 -2.421875 0.65625 -2.59375 0.875 -2.71875 C 1.101562 -2.851562 1.351562 -2.921875 1.625 -2.921875 C 1.925781 -2.921875 2.195312 -2.84375 2.4375 -2.6875 C 2.675781 -2.539062 2.847656 -2.328125 2.953125 -2.046875 Z M 2.390625 -2.046875 "/></g></g><g style="fill:#444545;fill-opacity:1;"><g transform="translate(221.21945, 63.209465)"><path style="stroke:none" d=""/></g></g><g style="fill:#444545;fill-opacity:1;"><g transform="translate(222.296345, 63.209465)"><path style="stroke:none" d="M 2.046875 -0.59375 L 0.84375 -0.59375 L 0.640625 0 L 0.140625 0 L 1.171875 -2.875 L 1.71875 -2.875 L 2.75 0 L 2.25 0 Z M 1.90625 -0.96875 L 1.4375 -2.3125 L 0.96875 -0.96875 Z M 1.90625 -0.96875 "/></g></g><g style="fill:#444545;fill-opacity:1;"><g transform="translate(225.183247, 63.209465)"><path style="stroke:none" d="M 2.390625 -2.046875 C 2.316406 -2.191406 2.210938 -2.300781 2.078125 -2.375 C 1.953125 -2.445312 1.800781 -2.484375 1.625 -2.484375 C 1.4375 -2.484375 1.265625 -2.441406 1.109375 -2.359375 C 0.960938 -2.273438 0.847656 -2.148438 0.765625 -1.984375 C 0.679688 -1.828125 0.640625 -1.644531 0.640625 -1.4375 C 0.640625 -1.238281 0.679688 -1.054688 0.765625 -0.890625 C 0.847656 -0.734375 0.960938 -0.613281 1.109375 -0.53125 C 1.265625 -0.445312 1.4375 -0.40625 1.625 -0.40625 C 1.882812 -0.40625 2.09375 -0.472656 2.25 -0.609375 C 2.40625 -0.753906 2.503906 -0.953125 2.546875 -1.203125 L 1.46875 -1.203125 L 1.46875 -1.578125 L 3.046875 -1.578125 L 3.046875 -1.203125 C 3.015625 -0.984375 2.929688 -0.78125 2.796875 -0.59375 C 2.671875 -0.40625 2.503906 -0.253906 2.296875 -0.140625 C 2.097656 -0.0234375 1.875 0.03125 1.625 0.03125 C 1.351562 0.03125 1.101562 -0.03125 0.875 -0.15625 C 0.65625 -0.289062 0.476562 -0.46875 0.34375 -0.6875 C 0.21875 -0.90625 0.15625 -1.15625 0.15625 -1.4375 C 0.15625 -1.726562 0.21875 -1.984375 0.34375 -2.203125 C 0.476562 -2.421875 0.65625 -2.59375 0.875 -2.71875 C 1.101562 -2.851562 1.351562 -2.921875 1.625 -2.921875 C 1.925781 -2.921875 2.195312 -2.84375 2.4375 -2.6875 C 2.675781 -2.539062 2.847656 -2.328125 2.953125 -2.046875 Z M 2.390625 -2.046875 "/></g></g><g style="fill:#444545;fill-opacity:1;"><g transform="translate(228.384933, 63.209465)"><path style="stroke:none" d="M 0.78125 -2.5 L 0.78125 -1.65625 L 1.78125 -1.65625 L 1.78125 -1.265625 L 0.78125 -1.265625 L 0.78125 -0.390625 L 1.90625 -0.390625 L 1.90625 0 L 0.3125 0 L 0.3125 -2.875 L 1.90625 -2.875 L 1.90625 -2.5 Z M 0.78125 -2.5 "/></g></g><g style="fill:#444545;fill-opacity:1;"><g transform="translate(230.555285, 63.209465)"><path style="stroke:none" d="M 2.671875 0 L 2.203125 0 L 0.78125 -2.15625 L 0.78125 0 L 0.3125 0 L 0.3125 -2.875 L 0.78125 -2.875 L 2.203125 -0.734375 L 2.203125 -2.875 L 2.671875 -2.875 Z M 2.671875 0 "/></g></g><g style="fill:#444545;fill-opacity:1;"><g transform="translate(233.541591, 63.209465)"><path style="stroke:none" d="M 0.15625 -1.4375 C 0.15625 -1.726562 0.21875 -1.984375 0.34375 -2.203125 C 0.476562 -2.421875 0.65625 -2.59375 0.875 -2.71875 C 1.101562 -2.851562 1.351562 -2.921875 1.625 -2.921875 C 1.925781 -2.921875 2.195312 -2.84375 2.4375 -2.6875 C 2.675781 -2.539062 2.847656 -2.328125 2.953125 -2.046875 L 2.390625 -2.046875 C 2.316406 -2.203125 2.210938 -2.316406 2.078125 -2.390625 C 1.953125 -2.460938 1.800781 -2.5 1.625 -2.5 C 1.4375 -2.5 1.265625 -2.457031 1.109375 -2.375 C 0.960938 -2.289062 0.847656 -2.164062 0.765625 -2 C 0.679688 -1.84375 0.640625 -1.65625 0.640625 -1.4375 C 0.640625 -1.226562 0.679688 -1.039062 0.765625 -0.875 C 0.847656 -0.71875 0.960938 -0.597656 1.109375 -0.515625 C 1.265625 -0.429688 1.4375 -0.390625 1.625 -0.390625 C 1.800781 -0.390625 1.953125 -0.425781 2.078125 -0.5 C 2.210938 -0.570312 2.316406 -0.6875 2.390625 -0.84375 L 2.953125 -0.84375 C 2.847656 -0.5625 2.675781 -0.34375 2.4375 -0.1875 C 2.195312 -0.0390625 1.925781 0.03125 1.625 0.03125 C 1.351562 0.03125 1.101562 -0.03125 0.875 -0.15625 C 0.65625 -0.289062 0.476562 -0.46875 0.34375 -0.6875 C 0.21875 -0.90625 0.15625 -1.15625 0.15625 -1.4375 Z M 0.15625 -1.4375 "/></g></g><g style="fill:#444545;fill-opacity:1;"><g transform="translate(236.743276, 63.209465)"><path style="stroke:none" d="M 2.4375 -2.875 L 1.484375 -1.046875 L 1.484375 0 L 1.015625 0 L 1.015625 -1.046875 L 0.0625 -2.875 L 0.59375 -2.875 L 1.25 -1.46875 L 1.921875 -2.875 Z M 2.4375 -2.875 "/></g></g></g></svg>